
#
# '/mnt/sdcard/Download/cds-data/video/video_07_wmv (05min).wmv'
#
General
Count                                    : 284
Count of stream of this kind             : 1
Kind of stream                           : General
Kind of stream                           : General
Stream identifier                        : 0
Count of video streams                   : 1
Count of audio streams                   : 1
Video_Format_List                        : WMV1
Video_Format_WithHint_List               : WMV1
Codecs Video                             : WMV1
Audio_Format_List                        : WMA
Audio_Format_WithHint_List               : WMA
Audio codecs                             : WMA1
Complete name                            : /mnt/sdcard/Download/cds-data/video/video_07_wmv (05min).wmv
Folder name                              : /mnt/sdcard/Download/cds-data/video
File name                                : video_07_wmv (05min)
File extension                           : wmv
Format                                   : Windows Media
Format                                   : Windows Media
Format/Extensions usually used           : asf wmv wma
Commercial name                          : Windows Media
Internet media type                      : video/x-ms-wmv
Codec                                    : Windows Media
Codec                                    : Windows Media
Codec/Extensions usually used            : asf wmv wma
File size                                : 3443985
File size                                : 3.28 MiB
File size                                : 3 MiB
File size                                : 3.3 MiB
File size                                : 3.28 MiB
File size                                : 3.284 MiB
Duration                                 : 30000
Duration                                 : 30s 0ms
Duration                                 : 30s 0ms
Duration                                 : 30s 0ms
Duration                                 : 00:00:30.000
Overall bit rate                         : 918396
Overall bit rate                         : 918 Kbps
Maximum Overall bit rate                 : 846000
Maximum Overall bit rate                 : 846 Kbps
Stream size                              : 169607
Stream size                              : 166 KiB (5%)
Stream size                              : 166 KiB
Stream size                              : 166 KiB
Stream size                              : 166 KiB
Stream size                              : 165.6 KiB
Stream size                              : 166 KiB (5%)
Proportion of this stream                : 0.04925
HeaderSize                               : 505
DataSize                                 : 3443250
Encoded date                             : UTC 1970-01-01 00:00:00.000
File last modification date              : UTC 2014-11-26 06:30:31
File last modification date (local)      : 2014-11-26 15:30:31

Video
Count                                    : 272
Count of stream of this kind             : 1
Kind of stream                           : Video
Kind of stream                           : Video
Stream identifier                        : 0
StreamOrder                              : 0
ID                                       : 1
ID                                       : 1
Format                                   : WMV1
Commercial name                          : WMV1
Codec ID                                 : WMV1
Codec ID/Info                            : Windows Media Video 7
Codec ID/Url                             : http://www.microsoft.com/windows/windowsmedia/format/codecdownload.aspx
Description of the codec                 : wmv1
Codec                                    : WMV1
Codec                                    : WMV1
Codec/Info                               : Windows Media Video 7
Codec/Url                                : http://www.microsoft.com/windows/windowsmedia/format/codecdownload.aspx
Codec/CC                                 : WMV1
Codec description                        : wmv1
Duration                                 : 30000
Duration                                 : 30s 0ms
Duration                                 : 30s 0ms
Duration                                 : 30s 0ms
Duration                                 : 00:00:30.000
Bit rate                                 : 777168
Bit rate                                 : 777 Kbps
Width                                    : 1368
Width                                    : 1 368 pixels
Height                                   : 768
Height                                   : 768 pixels
Pixel aspect ratio                       : 1.000
Display aspect ratio                     : 1.781
Display aspect ratio                     : 16:9
Frame rate                               : 25.000
Frame rate                               : 25.000 fps
Frame count                              : 750
Resolution                               : 8
Resolution                               : 8 bits
Bit depth                                : 8
Bit depth                                : 8 bits
Bits/(Pixel*Frame)                       : 0.030
Stream size                              : 2914378
Stream size                              : 2.78 MiB (85%)
Stream size                              : 3 MiB
Stream size                              : 2.8 MiB
Stream size                              : 2.78 MiB
Stream size                              : 2.779 MiB
Stream size                              : 2.78 MiB (85%)
Proportion of this stream                : 0.84622

Audio
Count                                    : 222
Count of stream of this kind             : 1
Kind of stream                           : Audio
Kind of stream                           : Audio
Stream identifier                        : 0
StreamOrder                              : 1
ID                                       : 2
ID                                       : 2
Format                                   : WMA
Commercial name                          : WMA
Format version                           : Version 1
Codec ID                                 : 160
Codec ID/Info                            : Windows Media Audio
Codec ID/Url                             : http://www.microsoft.com/windows/windowsmedia/format/codecdownload.aspx
Description of the codec                 : wmav1
Codec                                    : 160
Codec                                    : WMA1
Codec/Info                               : Windows Media Audio 1
Codec/Url                                : http://www.microsoft.com/windows/windowsmedia/format/codecdownload.aspx
Codec/CC                                 : 160
Codec description                        : wmav1
Duration                                 : 30000
Duration                                 : 30s 0ms
Duration                                 : 30s 0ms
Duration                                 : 30s 0ms
Duration                                 : 00:00:30.000
Bit rate                                 : 96000
Bit rate                                 : 96.0 Kbps
Channel(s)                               : 2
Channel(s)                               : 2 channels
Sampling rate                            : 44100
Sampling rate                            : 44.1 KHz
Samples count                            : 1323000
Resolution                               : 16
Resolution                               : 16 bits
Bit depth                                : 16
Bit depth                                : 16 bits
Stream size                              : 360000
Stream size                              : 352 KiB (10%)
Stream size                              : 352 KiB
Stream size                              : 352 KiB
Stream size                              : 352 KiB
Stream size                              : 351.6 KiB
Stream size                              : 352 KiB (10%)
Proportion of this stream                : 0.10453

